Coordinates
version=1
nRows=9
nColumns=24
inDegrees=yes

Units are S.I. units (second, meters, Newtons, ...)
Angles are in degrees.

endheader
time	pelvis_tilt	pelvis_list	pelvis_rotation	pelvis_tx	pelvis_ty	pelvis_tz	hip_flexion_r	hip_adduction_r	hip_rotation_r	knee_angle_r	ankle_angle_r	subtalar_angle_r	mtp_angle_r	hip_flexion_l	hip_adduction_l	hip_rotation_l	knee_angle_l	ankle_angle_l	subtalar_angle_l	mtp_angle_l	lumbar_extension	lumbar_bending	lumbar_rotation
      3.36500000	    -10.42944323	      4.33523131	     -3.29758822	     -1.99647517	     -0.01990369	     -0.63742277	     16.82741374	     -6.33714088	     -4.55611559	    -61.67131935	    -21.50548267	    -16.71425424	     -2.58079644	     28.11112205	      5.99562656	    -10.21560142	    -24.26268982	      1.88417897	     -9.86555906	      4.28279154	      7.19642987	     -4.56438059	      1.69125492
      3.37000000	    -10.42614360	      4.29225306	     -3.18334164	     -1.99092669	     -0.01909050	     -0.63804120	     17.75186480	     -6.32429440	     -4.65165473	    -62.77379848	    -21.07135057	    -17.59866112	     -2.71026235	     27.58391099	      6.10518116	    -10.06011981	    -23.99775787	      2.12287559	     -9.85350032	      4.32575578	      7.13661056	     -4.51667873	      1.40207773
      3.37500000	    -10.57411820	      4.14621260	     -3.07303068	     -1.98559282	     -0.01841719	     -0.63861576	     18.86038289	     -6.16377716	     -4.76387075	    -63.83295100	    -20.52348667	    -18.45414152	     -3.33090249	     27.26434756	      6.09614386	     -9.79615288	    -23.80968981	      2.33718762	     -9.89629081	      4.26160220	      7.20805458	     -4.34989395	      1.16348767
      3.38000000	    -10.63519142	      4.06888620	     -2.96216966	     -1.98011931	     -0.01764455	     -0.63915881	     19.85745404	     -6.08857087	     -4.85885191	    -64.85133970	    -19.57914513	    -18.84126044	     -4.72976416	     26.80332915	      6.16122335	     -9.58986738	    -23.55249990	      2.65275372	     -9.80363505	      3.94625033	      7.21840046	     -4.26479260	      0.87241215
      3.38500000	    -10.65291354	      3.96508094	     -2.85127633	     -1.97467601	     -0.01677269	     -0.63974615	     20.76760911	     -5.99529618	     -4.96751360	    -65.68049990	    -18.97566713	    -19.48664698	     -4.78628157	     26.27745911	      6.21011671	     -9.36351805	    -23.24342783	      2.81788663	     -9.85165150	      3.88109550	      7.17738613	     -4.14553047	      0.59970239
      3.39000000	    -10.74176901	      3.84784939	     -2.71830904	     -1.96926530	     -0.01599600	     -0.64037928	     21.74974542	     -5.89234562	     -5.08604899	    -66.45013594	    -18.28136871	    -19.93294675	     -4.92612439	     25.83151482	      6.25353842	     -9.08343260	    -22.94021226	      3.00410697	     -9.90076894	      3.72257331	      7.21286404	     -4.00621396	      0.31668999
      3.39500000	    -10.71357073	      3.72510971	     -2.65359301	     -1.96380767	     -0.01504236	     -0.64090073	     22.58115490	     -5.75346594	     -5.13414332	    -67.09156930	    -17.63307920	    -20.31517545	     -4.87389795	     25.21424029	      6.26192796	     -8.85778120	    -22.56739964	      3.21481240	     -9.87070753	      3.69069409	      7.13682139	     -3.85382566	      0.14530446
      3.40000000	    -10.85766668	      3.59879614	     -2.50053562	     -1.95842639	     -0.01433594	     -0.64158962	     23.59988576	     -5.64558151	     -5.25732883	    -67.70967844	    -16.86050214	    -20.47619434	     -5.09991043	     24.81519771	      6.30957666	     -8.53036594	    -22.23693246	      3.40108962	     -9.99155851	      3.25247414	      7.23633351	     -3.69527962	     -0.15268400
      3.40500000	    -10.82147164	      3.50415646	     -2.41590343	     -1.95296903	     -0.01338780	     -0.64207064	     24.39176914	     -5.54135717	     -5.33228336	    -68.18355487	    -16.24051230	    -20.77985606	     -5.01262118	     24.17289370	      6.33715755	     -8.36601858	    -21.82448707	      3.58443470	     -9.90156362	      3.21597791	      7.16025688	     -3.58325323	     -0.35270095
